<svg width="16" height="16" viewBox="0 0 16 16" fill="none" xmlns="http://www.w3.org/2000/svg">
<path d="M5.25 15.5C4.8375 15.5 4.4845 15.3533 4.191 15.0597C3.897 14.7657 3.75 14.4125 3.75 14C3.75 13.5875 3.897 13.2343 4.191 12.9403C4.4845 12.6467 4.8375 12.5 5.25 12.5C5.6625 12.5 6.0155 12.6467 6.309 12.9403C6.603 13.2343 6.75 13.5875 6.75 14C6.75 14.4125 6.603 14.7657 6.309 15.0597C6.0155 15.3533 5.6625 15.5 5.25 15.5ZM12.75 15.5C12.3375 15.5 11.9845 15.3533 11.691 15.0597C11.397 14.7657 11.25 14.4125 11.25 14C11.25 13.5875 11.397 13.2343 11.691 12.9403C11.9845 12.6467 12.3375 12.5 12.75 12.5C13.1625 12.5 13.5157 12.6467 13.8097 12.9403C14.1033 13.2343 14.25 13.5875 14.25 14C14.25 14.4125 14.1033 14.7657 13.8097 15.0597C13.5157 15.3533 13.1625 15.5 12.75 15.5ZM4.6125 3.5L6.4125 7.25H11.6625L13.725 3.5H4.6125ZM5.25 11.75C4.6875 11.75 4.2625 11.503 3.975 11.009C3.6875 10.5155 3.675 10.025 3.9375 9.5375L4.95 7.7L2.25 2H1.48125C1.26875 2 1.09375 1.928 0.95625 1.784C0.81875 1.6405 0.75 1.4625 0.75 1.25C0.75 1.0375 0.822 0.85925 0.966 0.71525C1.1095 0.57175 1.2875 0.5 1.5 0.5H2.71875C2.85625 0.5 2.9875 0.5375 3.1125 0.6125C3.2375 0.6875 3.33125 0.79375 3.39375 0.93125L3.9 2H14.9625C15.3 2 15.5312 2.125 15.6562 2.375C15.7812 2.625 15.775 2.8875 15.6375 3.1625L12.975 7.9625C12.8375 8.2125 12.6563 8.40625 12.4313 8.54375C12.2063 8.68125 11.95 8.75 11.6625 8.75H6.075L5.25 10.25H13.5187C13.7312 10.25 13.9062 10.3217 14.0438 10.4653C14.1813 10.6093 14.25 10.7875 14.25 11C14.25 11.2125 14.178 11.3905 14.034 11.534C13.8905 11.678 13.7125 11.75 13.5 11.75H5.25ZM6.4125 7.25H11.6625H6.4125Z" fill="#181818"/>
</svg>
