<svg width="18" height="14" viewBox="0 0 18 14" fill="none" xmlns="http://www.w3.org/2000/svg">
<path d="M11.35 0.549805C11.1845 0.846211 11.037 1.15232 10.9083 1.46647C9.64396 1.26651 8.35602 1.26651 7.09166 1.46647C6.96298 1.15232 6.81549 0.846211 6.64999 0.549805C5.45898 0.753305 4.30116 1.11775 3.20833 1.63314C1.25411 4.45338 0.367856 7.87727 0.708325 11.2915C1.98186 12.2489 3.41121 12.979 4.93333 13.4498C5.27992 12.992 5.58924 12.5071 5.85833 11.9998C5.36172 11.8167 4.88441 11.585 4.43333 11.3081C4.55704 11.2258 4.67407 11.1339 4.78333 11.0331C6.09871 11.6667 7.53997 11.9958 8.99999 11.9958C10.46 11.9958 11.9013 11.6667 13.2167 11.0331C13.3333 11.1331 13.45 11.2248 13.5667 11.3081C13.1131 11.5828 12.6363 11.8171 12.1417 12.0081C12.3996 12.5269 12.7006 13.0231 13.0417 13.4915C14.5619 13.0223 15.9888 12.292 17.2583 11.3331C17.607 7.91831 16.72 4.49162 14.7583 1.6748C13.6778 1.14875 12.5314 0.770363 11.35 0.549805V0.549805ZM6.23333 9.34147C5.81631 9.31153 5.42711 9.12121 5.14743 8.81045C4.86774 8.49969 4.71932 8.09266 4.73333 7.6748C4.71721 7.2564 4.8649 6.84821 5.145 6.53698C5.42511 6.22575 5.81554 6.03603 6.23333 6.00814C6.65111 6.03603 7.04154 6.22575 7.32165 6.53698C7.60175 6.84821 7.74944 7.2564 7.73333 7.6748C7.74944 8.09321 7.60175 8.5014 7.32165 8.81263C7.04154 9.12386 6.65111 9.31358 6.23333 9.34147V9.34147ZM11.7667 9.34147C11.3496 9.31153 10.9604 9.12121 10.6808 8.81045C10.4011 8.49969 10.2527 8.09266 10.2667 7.6748C10.2505 7.2564 10.3982 6.84821 10.6783 6.53698C10.9584 6.22575 11.3489 6.03603 11.7667 6.00814C12.1852 6.03395 12.5769 6.22306 12.8574 6.53476C13.138 6.84646 13.2849 7.25585 13.2667 7.6748C13.2849 8.09376 13.138 8.50314 12.8574 8.81485C12.5769 9.12655 12.1852 9.31566 11.7667 9.34147V9.34147Z" fill="#939393"/>
</svg>
