<svg width="18" height="18" viewBox="0 0 18 18" fill="none" xmlns="http://www.w3.org/2000/svg">
<path d="M9.00002 0.666504C11.2642 0.666504 11.5467 0.674837 12.435 0.716504C13.3225 0.758171 13.9267 0.897337 14.4584 1.104C15.0084 1.31567 15.4717 1.60234 15.935 2.06484C16.3588 2.48142 16.6866 2.98533 16.8959 3.5415C17.1017 4.07234 17.2417 4.67734 17.2834 5.56484C17.3225 6.45317 17.3334 6.73567 17.3334 8.99984C17.3334 11.264 17.325 11.5465 17.2834 12.4348C17.2417 13.3223 17.1017 13.9265 16.8959 14.4582C16.6873 15.0147 16.3593 15.5187 15.935 15.9348C15.5183 16.3584 15.0144 16.6863 14.4584 16.8957C13.9275 17.1015 13.3225 17.2415 12.435 17.2832C11.5467 17.3223 11.2642 17.3332 9.00002 17.3332C6.73585 17.3332 6.45335 17.3248 5.56502 17.2832C4.67752 17.2415 4.07335 17.1015 3.54169 16.8957C2.98529 16.6869 2.48129 16.359 2.06502 15.9348C1.64119 15.5183 1.3133 15.0144 1.10419 14.4582C0.89752 13.9273 0.758354 13.3223 0.716687 12.4348C0.67752 11.5465 0.666687 11.264 0.666687 8.99984C0.666687 6.73567 0.67502 6.45317 0.716687 5.56484C0.758354 4.6765 0.89752 4.07317 1.10419 3.5415C1.31272 2.98499 1.64069 2.48094 2.06502 2.06484C2.48141 1.64086 2.98538 1.31295 3.54169 1.104C4.07335 0.897337 4.67669 0.758171 5.56502 0.716504C6.45335 0.677337 6.73585 0.666504 9.00002 0.666504ZM9.00002 4.83317C7.89495 4.83317 6.83514 5.27216 6.05374 6.05356C5.27234 6.83496 4.83335 7.89477 4.83335 8.99984C4.83335 10.1049 5.27234 11.1647 6.05374 11.9461C6.83514 12.7275 7.89495 13.1665 9.00002 13.1665C10.1051 13.1665 11.1649 12.7275 11.9463 11.9461C12.7277 11.1647 13.1667 10.1049 13.1667 8.99984C13.1667 7.89477 12.7277 6.83496 11.9463 6.05356C11.1649 5.27216 10.1051 4.83317 9.00002 4.83317V4.83317ZM14.4167 4.62484C14.4167 4.34857 14.3069 4.08362 14.1116 3.88827C13.9162 3.69292 13.6513 3.58317 13.375 3.58317C13.0988 3.58317 12.8338 3.69292 12.6385 3.88827C12.4431 4.08362 12.3334 4.34857 12.3334 4.62484C12.3334 4.9011 12.4431 5.16606 12.6385 5.36141C12.8338 5.55676 13.0988 5.6665 13.375 5.6665C13.6513 5.6665 13.9162 5.55676 14.1116 5.36141C14.3069 5.16606 14.4167 4.9011 14.4167 4.62484ZM9.00002 6.49984C9.66306 6.49984 10.2989 6.76323 10.7678 7.23207C11.2366 7.70091 11.5 8.3368 11.5 8.99984C11.5 9.66288 11.2366 10.2988 10.7678 10.7676C10.2989 11.2364 9.66306 11.4998 9.00002 11.4998C8.33698 11.4998 7.70109 11.2364 7.23225 10.7676C6.76341 10.2988 6.50002 9.66288 6.50002 8.99984C6.50002 8.3368 6.76341 7.70091 7.23225 7.23207C7.70109 6.76323 8.33698 6.49984 9.00002 6.49984V6.49984Z" fill="#939393"/>
</svg>
