<svg width="14" height="16" viewBox="0 0 14 16" fill="none" xmlns="http://www.w3.org/2000/svg">
<path d="M7.2 0C2.8 0 0.5 2.8 0.5 5.9C0.5 7.4 1.3 8.9 2.6 9.7C3 9.9 2.9 9.7 3.2 8.5C3.2 8.4 3.2 8.3 3.1 8.2C1.3 6 2.8 1.7 7 1.7C13.1 1.7 11.9 10.1 8.1 10.1C7.3 10.2 6.6 9.6 6.6 8.8V8.4C7 7.3 7.3 6.3 7.4 5.2C7.4 3.1 4.3 3.4 4.3 6.2C4.3 6.7 4.4 7.2 4.6 7.6C4.6 7.6 3.6 11.7 3.4 12.4C3.2 13.6 3.3 14.8 3.5 15.9C3.4 16 3.5 16 3.5 16H3.6C4.3 15 4.9 14 5.3 12.9C5.4 12.4 5.9 10.6 5.9 10.6C6.4 11.3 7.3 11.7 8.2 11.7C11.3 11.7 13.5 9 13.5 5.7C13.5 2.4 10.7 0 7.2 0Z" fill="#939393"/>
</svg>
