<svg width="12" height="14" viewBox="0 0 12 14" fill="none" xmlns="http://www.w3.org/2000/svg">
<path d="M12 6.03369V3.66702C10.8917 3.66702 10.0458 3.37119 9.5 2.79619C8.93979 2.13996 8.62594 1.30892 8.6125 0.446192V0.275358L6.375 0.221191C6.375 0.221191 6.375 0.317025 6.375 0.446192V9.83369C6.29825 10.2531 6.09466 10.6388 5.79173 10.9389C5.48879 11.2389 5.1011 11.4388 4.68098 11.5115C4.26086 11.5842 3.82854 11.5262 3.4424 11.3455C3.05625 11.1647 2.73487 10.8698 2.52163 10.5006C2.3084 10.1314 2.21358 9.70562 2.24997 9.28081C2.28637 8.856 2.45223 8.45258 2.72517 8.12503C2.9981 7.79747 3.36497 7.56154 3.77624 7.44909C4.1875 7.33663 4.62337 7.35308 5.025 7.49619V5.20452C4.79083 5.16615 4.55396 5.14665 4.31667 5.14619C3.46291 5.14619 2.62833 5.39936 1.91846 5.87368C1.20858 6.348 0.655307 7.02217 0.328589 7.81094C0.00187027 8.59971 -0.083614 9.46765 0.0829455 10.305C0.249505 11.1423 0.660628 11.9115 1.26432 12.5152C1.86802 13.1189 2.63718 13.53 3.47453 13.6966C4.31188 13.8631 5.17982 13.7777 5.96859 13.4509C6.75735 13.1242 7.43153 12.5709 7.90585 11.8611C8.38017 11.1512 8.63334 10.3166 8.63334 9.46286C8.63287 9.28596 8.62174 9.10925 8.6 8.93369V5.12119C9.61743 5.75658 10.8012 6.07428 12 6.03369Z" fill="#939393"/>
</svg>
